<svg width="44" height="44" viewBox="0 0 44 44" fill="none" xmlns="http://www.w3.org/2000/svg">
<path d="M22 0.5C33.8741 0.5 43.5 10.1259 43.5 22C43.5 33.8741 33.8741 43.5 22 43.5C10.1259 43.5 0.5 33.8741 0.5 22C0.5 10.1259 10.1259 0.5 22 0.5Z" fill="#101A31"/>
<path d="M22 0.5C33.8741 0.5 43.5 10.1259 43.5 22C43.5 33.8741 33.8741 43.5 22 43.5C10.1259 43.5 0.5 33.8741 0.5 22C0.5 10.1259 10.1259 0.5 22 0.5Z" stroke="#00B4D8" stroke-linecap="round"/>
<path d="M22 30.3334C22 30.3334 28.6667 27.0001 28.6667 22.0001V16.1667L22 13.6667L15.3334 16.1667V22.0001C15.3334 27.0001 22 30.3334 22 30.3334Z" stroke="#00B4D8" stroke-width="2" stroke-linecap="round" stroke-linejoin="round"/>
</svg>
